# xmcd
#
# Track frame offsets: 
#        150
#        11470
#        23035
#        35197
#        47117
#        59567
#        71792
#        82060
#        95215
#        107597
#        118922
#        131642
#        141087
#        149940
#        159415
#        169410
#        181077
#        191447
#        201097
#        212697
#        226277
#        238742
#        251280
#        261525
#        274582
#        285842
#        297172
#        305685
#
# Disc length: 4248 seconds
#
# Revision: 0
# Processed by: cddbd v1.5.1PL0 Copyright (c) Steve Scherf et al.
# Submitted via: ExactAudioCopy v0.95a4
#
DISCID=b310961c
DTITLE=Various Artist - The Sarg Records Anthology - Disc 2
DYEAR=1900
DGENRE=Country
TTITLE0=Adolph Hofner and The Pearl Wranglers - I Get So Lonesome (Since
TTITLE0=You're Gone)
TTITLE1=Adolph Hofner and The Pearl Wranglers - The Tickle-Toe Song
TTITLE2=Adolph Hofner and The Pearl Wranglers - Rockin' And A-Boppin'
TTITLE3=Earl Gilliam With Lucian Davis and His Orchestra - Don't Make Me
TTITLE3=Late, Baby
TTITLE4=Earl Gilliam With Lucian Davis and His Orchestra - Nobody's Blue
TTITLE4=s
TTITLE5=Peck Touchton and The Sunset Wranglers - You've Changed Your Tun
TTITLE5=e
TTITLE6=Peck Touchton and The Sunset Wranglers - Then I Found You
TTITLE7=Eddy Dugosh and The Ah-Ha Playboys - Strange Kinda Feeling
TTITLE8=Eddy Dugosh and The Ah-Ha Playboys - Don't You Realise
TTITLE9=Earl Gilliam With Lucian Davis and His Orchestra - Wrong Doing W
TTITLE9=oman
TTITLE10=Earl Gilliam With Lucian Davis and His Orchestra - Petite Baby
TTITLE11=Link Davis - Cockroach
TTITLE12=Link Davis - Big Houston
TTITLE13=Floyd Tillman - Baby, I Just Want You
TTITLE14=Coye Wilcox - Bird's Nest On The Ground
TTITLE15=Coye Wilcox - Don't Take My Love
TTITLE16=Al Parsons and The Country Store Boys - Wait For Me Baby
TTITLE17=Al Parsons and The Country Store Boys - Memories Of Yesterday
TTITLE18=Fiddlin' Willie and His Ozark Pals - Down In Brazos Valley
TTITLE19=Fiddlin' Willie and His Ozark Pals - Our Secret Rendezvous
TTITLE20=Peck Touchton and The Sunset Wranglers - My Baby Ain't Around
TTITLE21=Peck Touchton and The Sunset Wranglers - I'm Just A Standby
TTITLE22=Harmon Boazeman and The Circle C Band - No Love In You
TTITLE23=Harmon Boazeman and The Circle C Band - Someone You Used To Kno
TTITLE23=w
TTITLE24=Al Parsons and The Country Store Boys - Darling, I Still Dream 
TTITLE24=Of You
TTITLE25=Al Parsons and The Country Store Boys - Why Can't You Be True
TTITLE26=Al Urban - Lookin' For Money
TTITLE27=Al Urban - I Don't Want To Be Alone
EXTD=
EXTT0=
EXTT1=
EXTT2=
EXTT3=
EXTT4=
EXTT5=
EXTT6=
EXTT7=
EXTT8=
EXTT9=
EXTT10=
EXTT11=
EXTT12=
EXTT13=
EXTT14=
EXTT15=
EXTT16=
EXTT17=
EXTT18=
EXTT19=
EXTT20=
EXTT21=
EXTT22=
EXTT23=
EXTT24=
EXTT25=
EXTT26=
EXTT27=
PLAYORDER=
